<?xml version="1.0" encoding="UTF-8" standalone="no"?>
<!-- Created with Inkscape (http://www.inkscape.org/) -->

<svg
   width="500"
   height="500"
   viewBox="0 0 500 500"
   version="1.1"
   id="svg5"
   xml:space="preserve"
   xmlns="http://www.w3.org/2000/svg"
   xmlns:svg="http://www.w3.org/2000/svg"><defs
     id="defs2" /><g
     id="layer1"
     transform="translate(794.51477,-388.66138)"><rect
       style="fill:#ffffff;stroke-width:12.3043"
       id="rect962"
       width="500"
       height="500"
       x="-794.51477"
       y="388.66138"
       ry="85.287788" /><g
       id="g1001"
       transform="translate(-0.77338372,2.622374)"><g
         id="g2980"
         transform="matrix(0.83835903,0,0,0.83835903,-2014.3453,478.07442)"><g
           id="g1111"><g
             id="g986"
             transform="matrix(1.3848667,0,0,1.3848667,2157.5513,-155.56683)"><path
               style="fill:#1ebbd7;fill-opacity:1;stroke:none;stroke-width:4.50784"
               d="m -409.11849,274.63409 -0.48331,-155.90714 112.84112,52.30227 -0.95401,157.1789 z"
               id="path964" /><path
               style="fill:#1ebbd7;fill-opacity:1;stroke:none;stroke-width:4.50784"
               d="m -285.61938,328.81729 0.48419,-157.63505 112.1458,-52.44691 -0.26092,158.34007 z"
               id="path966" /><path
               style="fill:#1ebbd7;fill-opacity:1;stroke:none;stroke-width:4.50784"
               d="m -387.90177,108.58178 -1.42576,12.50415 91.76959,45.8232 z"
               id="path968" /><path
               style="fill:#1ebbd7;fill-opacity:1;stroke:none;stroke-width:4.50784"
               d="m -283.43785,166.25679 90.89233,-43.58922 -1.09714,-13.61432 z"
               id="path970" /></g><g
             aria-label="Emetshaf"
             id="text1422"
             style="font-size:57.0606px;font-family:Arial;-inkscape-font-specification:Arial;text-align:center;text-anchor:middle;fill:#1ebbd7;stroke-width:0.904212"><path
               d="m 1675.3931,353.62168 q 0.8559,-0.34236 1.4265,-0.34236 0.9129,0 1.3694,0.68473 0.4565,0.68473 0.4565,1.76888 0,1.71181 -0.8559,2.91009 -0.7988,1.19827 -2.796,2.1683 -3.3665,1.5977 -8.7302,2.56773 -5.3637,0.91297 -10.5562,0.91297 -7.1897,0 -12.0398,-1.5977 -4.8502,-1.65476 -7.2467,-4.50779 -2.3395,-2.85303 -2.3395,-6.44785 0,-4.90721 3.1383,-8.33084 3.1954,-3.4807 9.358,-5.02134 -3.3666,-0.97003 -5.1926,-3.42363 -1.7688,-2.45361 -1.7688,-5.47782 0,-4.10836 2.5677,-7.2467 2.6248,-3.19539 7.0184,-4.90721 4.3937,-1.71182 9.6433,-1.71182 7.0755,0 10.6133,3.08128 3.5377,3.02421 3.5377,7.87436 0,3.36658 -1.2553,5.47782 -1.1983,2.05418 -3.4807,2.05418 -1.5977,0 -2.5107,-0.68473 -0.9129,-0.74179 -0.9129,-2.1683 0,-0.97003 0.2853,-2.11124 0.2853,-1.883 0.2853,-2.56773 0,-2.05418 -1.5407,-3.30951 -1.5406,-1.3124 -5.1354,-1.3124 -4.8502,0 -7.7603,2.05418 -2.9101,2.05418 -2.9101,5.53488 0,2.68185 2.1683,4.45073 2.2254,1.71182 7.1897,1.883 1.2553,0.0571 1.7689,0.5706 0.5135,0.51355 0.5135,1.71182 0,3.766 -3.4236,3.82306 -4.7361,0.11412 -7.8744,1.3124 -3.0813,1.19827 -4.5078,3.08127 -1.3694,1.82594 -1.3694,3.93718 0,3.53776 3.3095,5.3637 3.3095,1.76887 10.4991,1.76887 4.7361,0 9.9856,-1.08415 5.3067,-1.14121 9.0727,-2.73891 z"
               style="font-family:pacifico;-inkscape-font-specification:pacifico"
               id="path4805" /><path
               d="m 1678.2461,364.29202 q -2.1683,0 -3.0812,-2.28243 -0.8559,-2.28242 -0.8559,-7.30375 0,-7.41788 2.1112,-14.09397 0.5135,-1.65476 1.6548,-2.39655 1.1982,-0.79885 3.3095,-0.79885 1.1412,0 1.5977,0.28531 0.4565,0.2853 0.4565,1.08415 0,0.91297 -0.856,4.10836 -0.5706,2.28243 -0.9129,3.99424 -0.3424,1.65476 -0.5706,4.16543 1.5406,-4.45073 3.6519,-7.532 2.1683,-3.08127 4.3936,-4.56485 2.2824,-1.54064 4.2796,-1.54064 1.9971,0 2.7959,0.91297 0.8559,0.91297 0.8559,2.79597 0,1.82594 -1.0841,6.61903 -0.4565,2.05418 -0.6277,3.08128 2.8531,-7.01846 6.3337,-10.21385 3.4807,-3.1954 6.505,-3.1954 3.7089,0 3.7089,3.70894 0,2.22537 -1.2553,8.04555 -1.0842,4.96427 -1.0842,6.56197 0,2.28242 1.6548,2.28242 1.1412,0 2.6818,-1.36945 1.5977,-1.42652 4.2225,-4.56485 0.6847,-0.79885 1.5406,-0.79885 0.7418,0 1.1412,0.68473 0.4565,0.68472 0.4565,1.883 0,2.28242 -1.0841,3.53775 -2.4536,3.02422 -5.3067,4.96428 -2.7959,1.94006 -6.3907,1.94006 -2.9101,0 -4.3937,-1.65476 -1.4836,-1.71182 -1.4836,-4.90721 0,-1.5977 0.7989,-5.70606 0.7418,-3.59482 0.7418,-4.96427 0,-0.91297 -0.6277,-0.91297 -0.7418,0 -2.1113,1.94006 -1.3694,1.883 -2.7389,5.02133 -1.3694,3.13833 -2.2253,6.61903 -0.6277,2.73891 -1.4836,3.65188 -0.7989,0.91297 -2.6248,0.91297 -1.883,0 -2.853,-1.76888 -0.913,-1.82594 -0.913,-4.39367 0,-2.1683 0.5706,-6.27666 0.4565,-3.65188 0.4565,-4.79309 0,-0.91297 -0.6277,-0.91297 -0.8559,0 -2.1683,2.05418 -1.3124,2.05418 -2.5677,5.24957 -1.1983,3.1954 -1.9401,6.27667 -0.6276,2.68185 -1.4835,3.65188 -0.7989,0.91297 -2.5678,0.91297 z"
               style="font-family:pacifico;-inkscape-font-specification:pacifico"
               id="path4807" /><path
               d="m 1742.0969,351.2822 q 0.7418,0 1.1412,0.68473 0.4565,0.68472 0.4565,1.883 0,2.28242 -1.0841,3.53775 -2.1113,2.56773 -5.9914,4.73603 -3.8231,2.16831 -8.2167,2.16831 -5.9914,0 -9.3009,-3.25246 -3.3095,-3.25245 -3.3095,-8.90145 0,-3.93718 1.6547,-7.30376 1.6548,-3.42363 4.5649,-5.42075 2.9671,-1.99713 6.6761,-1.99713 3.3095,0 5.3066,1.99713 1.9971,1.94006 1.9971,5.30663 0,3.93718 -2.853,6.79021 -2.796,2.79597 -9.5291,4.45073 1.4265,2.62479 5.4207,2.62479 2.5678,0 5.8202,-1.76888 3.3095,-1.82594 5.7061,-4.73603 0.6847,-0.79885 1.5406,-0.79885 z m -14.3792,-8.27379 q -2.1113,0 -3.5949,2.45361 -1.4265,2.4536 -1.4265,5.9343 v 0.11412 q 3.3666,-0.79885 5.3067,-2.39654 1.94,-1.5977 1.94,-3.70894 0,-1.08415 -0.6276,-1.71182 -0.5707,-0.68473 -1.5977,-0.68473 z"
               style="font-family:pacifico;-inkscape-font-specification:pacifico"
               id="path4809" /><path
               d="m 1764.5217,351.2822 q 0.7418,0 1.1412,0.68473 0.4565,0.68472 0.4565,1.883 0,2.28242 -1.0841,3.53775 -2.4536,3.02422 -5.3637,4.96428 -2.9101,1.94006 -6.6761,1.94006 -11.6404,0 -11.6404,-16.3764 0,-2.51066 0.1712,-5.07839 h -2.2254 q -1.7118,0 -2.3395,-0.62767 -0.5706,-0.62766 -0.5706,-1.99712 0,-3.19539 2.5678,-3.19539 h 3.2524 q 0.9701,-6.27667 2.9672,-11.46918 1.9971,-5.19252 4.7931,-8.27379 2.853,-3.08127 6.1054,-3.08127 2.3966,0 3.766,2.11124 1.3695,2.11124 1.3695,5.30664 0,8.84439 -7.4179,15.40636 h 6.3908 q 0.913,0 1.3124,0.39942 0.3994,0.39943 0.3994,1.48358 0,3.93718 -6.4478,3.93718 h -6.9614 q -0.1141,2.85303 -0.1141,4.45073 0,5.9343 1.3694,8.33085 1.4265,2.39654 4.4507,2.39654 2.4537,0 4.3367,-1.48357 1.883,-1.48358 4.4507,-4.45073 0.6847,-0.79885 1.5406,-0.79885 z m -9.9856,-31.61157 q -0.8559,0 -1.94,2.1683 -1.0271,2.11124 -1.9972,5.9343 -0.9129,3.766 -1.5406,8.38791 3.3666,-2.91009 5.0213,-6.50491 1.7118,-3.65188 1.7118,-6.61903 0,-3.36657 -1.2553,-3.36657 z"
               style="font-family:pacifico;-inkscape-font-specification:pacifico"
               id="path4811" /><path
               d="m 1772.1108,365.54735 q -2.9672,0 -4.5649,-1.36945 -1.5406,-1.36946 -1.5406,-3.08128 0,-1.48357 1.0841,-2.56772 1.0842,-1.08416 3.1954,-1.08416 0.7418,0 1.7118,0.17119 1.0271,0.11412 1.5407,0.17118 -0.057,-1.48358 -0.6848,-2.79597 -0.5706,-1.31239 -1.4835,-2.51067 -0.913,-1.25533 -1.7118,-2.1683 -1.7689,3.36658 -3.5378,5.59194 -1.7118,2.22536 -3.766,4.22248 -1.0271,1.02709 -2.1683,1.02709 -0.913,0 -1.4836,-0.62766 -0.5706,-0.68473 -0.5706,-1.65476 0,-1.14121 0.7989,-2.11124 l 0.7417,-0.91297 q 3.1384,-3.88012 4.7361,-6.39079 0.97,-1.65476 2.2824,-4.39367 1.3124,-2.79596 2.5677,-5.76312 1.0842,-2.51066 4.5078,-2.51066 1.5977,0 2.2254,0.2853 0.6276,0.2853 0.6276,0.91297 0,0.34236 -0.2282,1.08415 -0.2282,0.74179 -0.6277,1.48358 -1.0271,2.05418 -1.0271,3.48069 0,0.85591 0.5707,1.883 0.6276,1.02709 1.883,2.56773 1.8259,2.39655 2.7389,4.10836 0.97,1.65476 0.97,3.65188 0,0.57061 -0.1141,1.5977 2.7959,-1.08415 6.5619,-5.76312 0.6848,-0.79885 1.5407,-0.79885 0.7418,0 1.1412,0.68473 0.4565,0.68472 0.4565,1.883 0,2.1683 -1.0842,3.53775 -2.853,3.53776 -5.4778,4.85016 -2.5677,1.25533 -6.3908,1.36945 -2.2824,1.94006 -5.4207,1.94006 z"
               style="font-family:pacifico;-inkscape-font-specification:pacifico"
               id="path4813" /><path
               d="m 1817.531,351.2822 q 0.7418,0 1.1412,0.68473 0.4565,0.68472 0.4565,1.883 0,2.28242 -1.0842,3.53775 -2.6247,3.02422 -5.4207,4.96428 -2.7389,1.94006 -6.2767,1.94006 -2.9101,0 -4.3936,-1.65476 -1.4836,-1.71182 -1.4836,-4.90721 0,-1.5977 0.7988,-5.70606 0.7418,-3.59482 0.7418,-4.96427 0,-0.91297 -0.6277,-0.91297 -0.7417,0 -2.1112,1.94006 -1.3695,1.883 -2.7389,5.02133 -1.3695,3.13833 -2.2254,6.61903 -1.0841,4.56485 -5.3637,4.56485 -1.7118,0 -2.2824,-1.19828 -0.5135,-1.25533 -0.5135,-4.45072 0,-1.82594 0.057,-2.91009 l 0.057,-4.56485 q 0,-8.78733 1.7689,-18.31645 1.8259,-9.52912 5.3066,-15.97697 3.5378,-6.50491 8.445,-6.50491 2.6248,0 4.2225,2.28242 1.6547,2.22537 1.6547,5.82018 0,5.76313 -3.3666,11.98273 -3.3665,6.16255 -10.9556,14.43633 -0.1712,2.96715 -0.1712,6.10549 1.883,-4.85015 4.1654,-7.87437 2.3395,-3.08127 4.5649,-4.39366 2.2824,-1.3124 4.1654,-1.3124 3.709,0 3.709,3.70894 0,2.22537 -1.2554,8.04555 -1.0841,4.96427 -1.0841,6.56197 0,2.28242 1.6547,2.28242 1.1412,0 2.6819,-1.36945 1.5977,-1.42652 4.2225,-4.56485 0.6847,-0.79885 1.5406,-0.79885 z m -16.947,-35.26345 q -1.0271,0 -2.2824,2.96715 -1.2554,2.91009 -2.4536,7.93142 -1.1412,4.96428 -1.883,10.84152 3.5377,-4.16543 5.8201,-9.07264 2.3395,-4.90721 2.3395,-8.90145 0,-1.82594 -0.3994,-2.79597 -0.3994,-0.97003 -1.1412,-0.97003 z"
               style="font-family:pacifico;-inkscape-font-specification:pacifico"
               id="path4815" /><path
               d="m 1821.5253,364.29202 q -3.5378,0 -5.649,-2.56773 -2.1113,-2.56773 -2.1113,-6.73315 0,-4.56485 2.1113,-8.61615 2.1112,-4.10836 5.5919,-6.56197 3.5378,-2.51067 7.475,-2.51067 1.2553,0 1.6547,0.51355 0.4565,0.45648 0.7418,1.71182 1.1983,-0.22825 2.5107,-0.22825 2.7959,0 2.7959,1.99712 0,1.19828 -0.8559,5.70606 -1.3124,6.56197 -1.3124,9.1297 0,0.85591 0.3995,1.36946 0.4565,0.51354 1.1412,0.51354 1.0841,0 2.6248,-1.36945 1.5406,-1.42652 4.1654,-4.56485 0.6847,-0.79885 1.5406,-0.79885 0.7418,0 1.1412,0.68473 0.4565,0.68472 0.4565,1.883 0,2.28242 -1.0841,3.53775 -2.3395,2.91009 -4.9643,4.90722 -2.6248,1.99712 -5.0784,1.99712 -1.883,0 -3.4807,-1.25534 -1.5406,-1.31239 -2.3395,-3.53775 -2.9671,4.79309 -7.4749,4.79309 z m 2.0542,-5.76312 q 1.2553,0 2.3965,-1.48358 1.1412,-1.48357 1.6548,-3.93718 l 2.1112,-10.49915 q -2.3965,0.0571 -4.4507,1.82594 -1.9971,1.71182 -3.1954,4.56485 -1.1983,2.85303 -1.1983,6.04842 0,1.76888 0.6847,2.62479 0.7418,0.85591 1.9972,0.85591 z"
               style="font-family:pacifico;-inkscape-font-specification:pacifico"
               id="path4817" /><path
               d="m 1863.5218,348.02975 q 1.5977,0 1.5977,2.39654 0,4.50779 -7.0755,4.50779 -1.3694,0 -3.9372,-0.51355 0.7418,3.53776 1.1983,7.87437 0.5135,4.27954 0.5135,7.07551 0,6.16255 -1.9971,9.415 -1.9971,3.25245 -5.2495,3.25245 -4.1084,0 -5.8773,-5.82018 -1.7118,-5.82018 -1.7118,-17.57466 0,-10.95564 2.3395,-22.19658 2.3965,-11.29799 6.5049,-18.65881 4.1654,-7.41788 9.1297,-7.41788 2.6818,0 4.1654,2.39654 1.5406,2.39655 1.5406,6.44785 0,13.40924 -16.034,29.21503 -0.5706,5.59194 -0.5706,9.81442 0,5.87725 0.3994,12.03979 0.3995,6.21961 1.3124,6.21961 1.7118,0 1.7118,-5.93431 0,-4.45072 -0.6276,-8.61615 -0.5706,-4.16542 -1.5977,-8.78733 -0.057,-0.74179 0.4565,-1.883 0.5706,-1.14121 1.3694,-1.99712 0.7989,-0.85591 1.4265,-0.85591 1.1412,0 2.7389,0.11412 0.5136,0.0571 1.1983,0.0571 2.2824,0 5.0784,-0.39942 0.4565,-0.0571 0.97,-0.11412 0.5136,-0.0571 1.0271,-0.0571 z m -5.7631,-32.011 q -1.0271,0 -2.5677,3.4807 -1.4836,3.48069 -2.9672,9.24381 -1.4835,5.70606 -2.5677,12.09685 4.5649,-5.19251 7.0185,-10.78445 2.4536,-5.649 2.5106,-10.55621 0,-3.4807 -1.4265,-3.4807 z"
               style="font-family:pacifico;-inkscape-font-specification:pacifico"
               id="path4819" /></g></g></g></g></g></svg>
